<svg xmlns="http://www.w3.org/2000/svg" viewBox="0 0 8582.50 2519.25" role="img" aria-label="InvestSalsa">
<title>InvestSalsa</title>
<g transform="translate(36.00 1756.12) scale(1 -1)">
<g fill="none" stroke="#64B860" stroke-width="50.00" stroke-linejoin="miter" stroke-miterlimit="2.2" transform="translate(0.00 0.00) scale(1.0 1.0)"><path d="M313 0H39V114H109V536H39V650H313V536H243V114H313Z" transform="translate(0.00 0.00)"/><path d="M581 0H332V97H392V254Q392 312 372.5 337.0Q353 362 315 362Q269 362 244.0 333.5Q219 305 218 259V97H278V0H29V97H89V353H24V451H218V382Q263 460 363 460Q427 460 474.0 422.0Q521 384 521 304V97H581Z" transform="translate(291.00 0.00)"/><path d="M520 354H474L313 0H220L50 354H2V451H232V354H189L277 165H283L350 354H314V451H520Z" transform="translate(807.00 0.00)"/><path d="M463 142Q458 82 404.0 36.0Q350 -10 253 -10Q152 -10 86.5 47.0Q21 104 21 217Q21 321 80.5 390.5Q140 460 247 460Q341 460 399.5 406.0Q458 352 459 264Q459 231 452 199H156Q167 92 262 92Q314 92 332.5 117.0Q351 142 355 162ZM326 274Q330 308 311.5 338.0Q293 368 247 368Q207 368 185.0 342.0Q163 316 157 274Z" transform="translate(1263.00 0.00)"/><path d="M435 138Q435 63 375.5 26.5Q316 -10 221 -10Q172 -10 122.5 0.5Q73 11 28 34L46 160L146 149V93Q164 87 184.0 85.5Q204 84 214 84Q251 84 278.0 96.0Q305 108 305 132Q305 161 264.0 170.0Q223 179 169.0 188.0Q115 197 74.0 225.0Q33 253 33 320Q33 403 97.5 431.5Q162 460 231 460Q321 460 400 419L411 304L311 293L303 356Q270 367 232 367Q207 367 189.5 356.5Q172 346 172 324Q172 295 211.5 285.5Q251 276 303.5 267.0Q356 258 395.5 230.5Q435 203 435 138Z" transform="translate(1691.00 0.00)"/><path d="M406 140Q396 62 352.0 26.0Q308 -10 238 -10Q163 -10 116.5 27.5Q70 65 70 135V359H6V451H70V588H199V451H361V359H199V157Q199 98 253 98Q265 98 285.5 108.5Q306 119 312 169Z" transform="translate(2095.00 0.00)"/></g><g fill="#F28C33" transform="translate(2203.08 0.00) scale(1.12 1.12)"><path d="M273 275 260 248Q260 219 341.5 192.5Q423 166 520.5 166.0Q618 166 735.0 195.0Q852 224 938.5 266.0Q1025 308 1081.5 354.0Q1138 400 1138 434Q1138 477 1038.0 514.0Q938 551 747.5 595.5Q557 640 468.5 708.0Q380 776 380.0 873.5Q380 971 450.0 1060.0Q520 1149 632.5 1218.0Q745 1287 878 1341Q1153 1452 1388 1452Q1478 1452 1547 1436Q1679 1405 1679.0 1354.0Q1679 1303 1670.0 1284.5Q1661 1266 1655.5 1260.0Q1650 1254 1641.5 1248.0Q1633 1242 1629 1239Q1585 1202 1388 1193Q1320 1190 1314.0 1186.0Q1308 1182 1303.5 1182.0Q1299 1182 1293.0 1190.0Q1287 1198 1287.0 1216.0Q1287 1234 1326 1282Q1204 1275 1065.5 1226.0Q927 1177 825.0 1115.5Q723 1054 655.0 994.5Q587 935 587.0 910.5Q587 886 602 870Q644 825 835 776Q1033 725 1099.0 694.0Q1165 663 1208.5 635.0Q1252 607 1278 578Q1339 508 1339.0 436.0Q1339 364 1300.5 301.0Q1262 238 1184.5 179.0Q1107 120 1002 74Q772 -29 454 -29Q222 -29 158 94Q141 125 141.0 158.5Q141 192 156.5 219.0Q172 246 194 260Q237 287 255.0 287.0Q273 287 273 275Z" transform="translate(0.00 0.00)"/><path d="M825 760Q901 760 901 708Q901 680 888.0 667.0Q875 654 832.5 580.5Q790 507 738.5 392.5Q687 278 672 197Q669 187 669 169Q669 114 699.0 114.0Q729 114 770.0 142.5Q811 171 843.0 203.5Q875 236 905.5 270.0Q936 304 942.0 309.0Q948 314 960 314Q979 314 983.0 285.0Q987 256 987.0 225.0Q987 194 981 182Q952 125 853.5 45.0Q755 -35 674.5 -35.0Q594 -35 556.0 14.0Q518 63 518.0 122.5Q518 182 538 227Q455 119 347.5 44.0Q240 -31 172.0 -31.0Q104 -31 61 10Q6 61 6.0 151.5Q6 242 46.5 333.5Q87 425 153.0 500.5Q219 576 298 638Q464 768 604 768Q658 768 692.0 750.0Q726 732 735 705Q759 741 775.5 750.5Q792 760 825 760ZM692 649Q521 649 338 459Q273 391 218.5 296.0Q164 201 164.0 166.0Q164 131 184 131Q212 131 340.0 241.5Q468 352 510 404Q556 462 692 649Z" transform="translate(1369.00 0.00)"/><path d="M604 704Q430 482 270 305Q269 293 261.5 260.5Q254 228 254.0 195.0Q254 162 284.5 135.5Q315 109 360.0 109.0Q405 109 456.5 141.0Q508 173 546 212Q646 315 670.0 315.0Q694 315 694 242V222Q694 183 680 165Q596 62 491.0 11.5Q386 -39 292.0 -39.0Q198 -39 149.0 18.5Q100 76 100 176Q100 371 204.5 634.5Q309 898 440 1083Q735 1501 891 1501Q939 1501 975.5 1472.5Q1012 1444 1012.0 1388.0Q1012 1332 950.0 1212.5Q888 1093 801.0 968.5Q714 844 604 704ZM846 1335Q846 1350 836 1350Q801 1350 652.0 1150.0Q503 950 436.5 831.0Q370 712 311 532Q429 672 637.5 968.5Q846 1265 846 1335Z" transform="translate(2203.00 0.00)"/><path d="M172 200 171 184Q171 159 190.0 141.0Q209 123 225 123Q345 123 437.5 159.0Q530 195 530 231Q530 248 496.5 260.5Q463 273 383.5 291.5Q304 310 268.0 320.5Q232 331 211.0 340.0Q190 349 168 365Q121 398 121.0 463.5Q121 529 169.5 593.5Q218 658 291.0 704.0Q364 750 448 785Q614 854 727 854Q838 854 864 806Q872 789 872 768V761Q872 708 849.5 678.0Q827 648 778.5 624.0Q730 600 701.5 600.0Q673 600 665.5 604.0Q658 608 653.0 614.5Q648 621 640.5 624.0Q633 627 633.0 639.0Q633 651 643.0 663.5Q653 676 657 690Q591 687 519.0 659.5Q447 632 395.5 598.0Q344 564 310.0 533.0Q276 502 276.0 487.5Q276 473 322 464Q529 423 594.0 393.0Q659 363 684.0 325.0Q709 287 709 256Q709 192 658.0 135.0Q607 78 532 42Q371 -37 251.5 -37.0Q132 -37 86.5 -0.5Q41 36 41.0 86.0Q41 136 66.5 178.5Q92 221 132.0 221.0Q172 221 172 200Z" transform="translate(2731.00 0.00)"/><path d="M825 760Q901 760 901 708Q901 680 888.0 667.0Q875 654 832.5 580.5Q790 507 738.5 392.5Q687 278 672 197Q669 187 669 169Q669 114 699.0 114.0Q729 114 770.0 142.5Q811 171 843.0 203.5Q875 236 905.5 270.0Q936 304 942.0 309.0Q948 314 960 314Q979 314 983.0 285.0Q987 256 987.0 225.0Q987 194 981 182Q952 125 853.5 45.0Q755 -35 674.5 -35.0Q594 -35 556.0 14.0Q518 63 518.0 122.5Q518 182 538 227Q455 119 347.5 44.0Q240 -31 172.0 -31.0Q104 -31 61 10Q6 61 6.0 151.5Q6 242 46.5 333.5Q87 425 153.0 500.5Q219 576 298 638Q464 768 604 768Q658 768 692.0 750.0Q726 732 735 705Q759 741 775.5 750.5Q792 760 825 760ZM692 649Q521 649 338 459Q273 391 218.5 296.0Q164 201 164.0 166.0Q164 131 184 131Q212 131 340.0 241.5Q468 352 510 404Q556 462 692 649Z" transform="translate(3484.00 0.00)"/></g><path d="M 2555.0 -229.4 C 3813.9 -105.8 5874.1 -137.6 8277.5 -328.2 C 6446.3 -375.9 4042.8 -345.9 2640.8 -261.1 Z M 5187.3 -444.7 C 6103.0 -409.4 7018.6 -448.3 8048.6 -518.9 C 7133.0 -554.2 5988.5 -497.7 5359.0 -480.0 Z" fill="#F28C33"/>
</g>
</svg>
